<svg width="25" height="24" viewBox="0 0 25 24" fill="none" xmlns="http://www.w3.org/2000/svg">
<g id="discord-svgrepo-com 1">
<path id="Vector" d="M16.3686 15.1222C15.2354 15.048 14.3444 14.1105 14.3444 12.9645C14.3444 12.9262 14.3451 12.888 14.3474 12.8497V12.855C14.3451 12.819 14.3436 12.777 14.3436 12.7342C14.3436 11.5905 15.2361 10.656 16.3626 10.5877H16.3686C17.5004 10.6492 18.3944 11.5815 18.3944 12.723C18.3944 12.7695 18.3929 12.8152 18.3899 12.861V12.855C18.3921 12.8925 18.3936 12.9367 18.3936 12.981C18.3936 14.1232 17.5004 15.057 16.3739 15.1215H16.3679L16.3686 15.1222ZM8.89411 15.1222C7.76086 15.048 6.86986 14.1105 6.86986 12.9645C6.86986 12.9262 6.87061 12.888 6.87286 12.8497V12.855C6.87061 12.819 6.86911 12.777 6.86911 12.7342C6.86911 11.5905 7.76161 10.656 8.88811 10.5877H8.89411C10.0259 10.6492 10.9199 11.5815 10.9199 12.723C10.9199 12.7695 10.9184 12.8152 10.9154 12.861V12.855C10.9176 12.891 10.9191 12.933 10.9191 12.9757C10.9191 14.1195 10.0266 15.054 8.90011 15.1222H8.89411ZM20.4194 4.84874C19.0971 4.22474 17.5611 3.73124 15.9531 3.44549L15.8414 3.42899C15.8376 3.42824 15.8331 3.42749 15.8286 3.42749C15.8024 3.42749 15.7799 3.44174 15.7679 3.46274C15.5924 3.77099 15.4019 4.15574 15.2301 4.55024L15.1979 4.63349C14.4254 4.50974 13.5344 4.43924 12.6269 4.43924C11.7194 4.43924 10.8284 4.50974 9.95911 4.64549L10.0559 4.63274C9.85336 4.16024 9.65986 3.77624 9.44611 3.40424L9.47686 3.46199C9.46411 3.44024 9.44086 3.42674 9.41461 3.42674C9.41086 3.42674 9.40636 3.42674 9.40261 3.42749C7.68286 3.72974 6.14686 4.22249 4.71136 4.89524L4.82461 4.84724C4.81186 4.85249 4.80136 4.86149 4.79461 4.87274C2.65411 7.90349 1.37311 11.6745 1.37311 15.7447C1.37311 16.425 1.40911 17.0962 1.47886 17.7577L1.47211 17.6752C1.47436 17.697 1.48561 17.715 1.50136 17.7277C3.10636 18.9285 4.97236 19.896 6.98611 20.5312L7.11811 20.5672C7.12411 20.5695 7.13161 20.5702 7.13911 20.5702C7.16311 20.5702 7.18411 20.559 7.19686 20.5417C7.59811 20.0017 7.97986 19.3897 8.31061 18.7477L8.34586 18.6727C8.35036 18.6637 8.35336 18.6525 8.35336 18.6405C8.35336 18.6097 8.33386 18.5842 8.30686 18.5737H8.30611C7.62211 18.3097 7.04386 18.0285 6.49336 17.706L6.55111 17.7375C6.52936 17.7247 6.51511 17.7015 6.51511 17.6752C6.51511 17.652 6.52636 17.631 6.54361 17.6182C6.66136 17.5297 6.77986 17.4382 6.89236 17.3452C6.90436 17.3355 6.92011 17.3295 6.93661 17.3295C6.94711 17.3295 6.95686 17.3317 6.96511 17.3355H6.96436C8.62036 18.1312 10.5644 18.5962 12.6164 18.5962C14.6684 18.5962 16.6131 18.1312 18.3486 17.301L18.2684 17.3355C18.2774 17.331 18.2871 17.3287 18.2984 17.3287C18.3149 17.3287 18.3306 17.3347 18.3426 17.3445C18.4551 17.4375 18.5729 17.5305 18.6921 17.6182C18.7094 17.6317 18.7206 17.6527 18.7206 17.676C18.7206 17.7022 18.7064 17.7247 18.6861 17.7375C18.1904 18.0337 17.6121 18.3142 17.0099 18.546L16.9311 18.573C16.9041 18.5835 16.8846 18.6097 16.8846 18.6397C16.8846 18.6517 16.8876 18.663 16.8929 18.6727C17.2686 19.3927 17.6496 20.0032 18.0711 20.583L18.0411 20.5402C18.0539 20.5582 18.0756 20.5702 18.0989 20.5702C18.1064 20.5702 18.1139 20.5687 18.1206 20.5672C20.2694 19.8982 22.1384 18.9307 23.7944 17.6932L23.7456 17.7285C23.7621 17.7165 23.7726 17.6977 23.7749 17.6767C23.8401 17.0887 23.8769 16.4062 23.8769 15.7155C23.8769 11.6542 22.5929 7.89299 20.4096 4.81499L20.4486 4.87349C20.4426 4.86149 20.4321 4.85174 20.4201 4.84649L20.4194 4.84874Z" fill="#ffffff"/>
</g>
</svg>
