<svg width="96" height="86" viewBox="0 0 96 86" fill="none" xmlns="http://www.w3.org/2000/svg">
<g id="freepik--Envelope--inject-3">
<path id="Vector" d="M92.4761 36.4397L92.1124 36.4746L92.5856 41.3978L92.9493 41.3628L92.4761 36.4397Z" fill="#E377FF"/>
<path id="Vector_2" d="M93.1217 43.0764L92.7581 43.1113L92.949 45.0982L93.3127 45.0632L93.1217 43.0764Z" fill="#E377FF"/>
<path id="Vector_3" d="M5.33102 85.7174L95.1039 77.0891L89.9674 23.6465L0.194493 32.2748L5.33102 85.7174Z" fill="#E377FF"/>
<path id="Vector_4" opacity="0.1" d="M5.33102 85.7174L95.1039 77.0891L89.9674 23.6465L0.194493 32.2748L5.33102 85.7174Z" fill="black"/>
<path id="Vector_5" opacity="0.1" d="M47.8841 57.1107L0.194824 32.2738L89.966 23.6436L47.8841 57.1107Z" fill="#263238"/>
<path id="Vector_6" d="M37.0192 2.99113L0.194641 32.2739L89.9658 23.6437L48.2377 1.91427C46.4638 0.990045 44.46 0.599871 42.469 0.790993C40.4779 0.982114 38.5849 1.74634 37.0192 2.99113Z" fill="#E377FF"/>
<path id="Vector_7" opacity="0.2" d="M86.6317 23.9667L46.9842 3.31805C45.6465 2.62052 44.1352 2.32593 42.6335 2.46996C41.1317 2.61399 39.704 3.19046 38.5232 4.12953L3.52545 31.9508L86.6317 23.9667Z" fill="#263238"/>
<path id="Vector_8" d="M70.052 23.3091L82.2012 26.555L82.4935 29.5856L47.8841 57.1108L8.66356 36.6852L8.07898 30.624L70.052 23.3091Z" fill="white"/>
<path id="Vector_9" d="M70.0522 23.3091L72.3482 29.6702L82.2014 26.555" fill="#E0E0E0"/>
<path id="Vector_10" d="M70.0522 23.3091L71.2329 28.5549L82.2014 26.555" fill="#F0F0F0"/>
<path id="Vector_11" d="M55.0569 51.3957L95.1043 77.0903L5.33313 85.7166L39.7502 52.8649C41.7678 50.9401 44.3736 49.7489 47.1494 49.4825C49.9251 49.216 52.7099 49.8898 55.0569 51.3957Z" fill="#E377FF"/>
</g>
</svg>
