<svg width="25" height="24" viewBox="0 0 25 24" fill="none" xmlns="http://www.w3.org/2000/svg">
<g id="instagram-logo-facebook-svgrepo-com 1">
<path id="Vector" d="M5.02332 1.5H20.0233C21.6733 1.5 23.0233 2.85 23.0233 4.5V19.5C23.0233 21.15 21.6733 22.5 20.0233 22.5H5.02332C3.37332 22.5 2.02332 21.15 2.02332 19.5V4.5C2.02332 2.85 3.37332 1.5 5.02332 1.5Z" fill="#ffffff"/>
<g id="Group">
<path id="Vector_2" d="M16.4983 7.27499C16.0483 7.27499 15.5983 7.64999 15.5983 8.17499C15.5983 8.69999 15.9733 9.07499 16.4983 9.07499C17.0233 9.07499 17.3983 8.69999 17.3983 8.17499C17.3233 7.64999 16.9483 7.27499 16.4983 7.27499Z" fill="#3E3E3E"/>
<path id="Vector_3" d="M12.5233 8.39999C10.4983 8.39999 8.84833 10.05 8.84833 12.075C8.84833 14.1 10.4983 15.75 12.5233 15.75C14.5483 15.75 16.1983 14.1 16.1983 12.075C16.2733 10.05 14.6233 8.39999 12.5233 8.39999ZM12.5233 14.475C11.2483 14.475 10.1233 13.425 10.1233 12.075C10.1233 10.8 11.1733 9.67499 12.5233 9.67499C13.7983 9.67499 14.9233 10.725 14.9233 12.075C14.9233 13.425 13.8733 14.475 12.5233 14.475Z" fill="#3E3E3E"/>
<path id="Vector_4" d="M15.5233 4.5H9.52332C7.04832 4.5 5.02332 6.525 5.02332 9V15C5.02332 17.475 7.04832 19.5 9.52332 19.5H15.5233C17.9983 19.5 20.0233 17.475 20.0233 15V9C20.0233 6.525 17.9983 4.5 15.5233 4.5ZM18.5983 15C18.5983 16.725 17.1733 18.075 15.5233 18.075H9.52332C7.79832 18.075 6.44832 16.65 6.44832 15V9C6.44832 7.275 7.87332 5.925 9.52332 5.925H15.5233C17.2483 5.925 18.5983 7.35 18.5983 9V15Z" fill="#3E3E3E"/>
</g>
</g>
</svg>
