<svg width="25" height="24" viewBox="0 0 25 24" fill="none" xmlns="http://www.w3.org/2000/svg">
<g id="linkedin-svgrepo-com 1">
<path id="Vector" d="M19.3624 3.99997H6.05734C5.88585 3.99191 5.71445 4.01786 5.55297 4.07635C5.39148 4.13484 5.24308 4.22471 5.11625 4.34081C4.98943 4.45692 4.88667 4.59699 4.81386 4.75299C4.74106 4.909 4.69963 5.07788 4.69196 5.24997V18.63C4.702 18.9901 4.84908 19.3328 5.103 19.5875C5.35691 19.8423 5.6984 19.9899 6.05734 20H19.3624C19.7113 19.9844 20.0403 19.8322 20.2788 19.5761C20.5173 19.32 20.6463 18.9804 20.6381 18.63V5.24997C20.641 5.08247 20.6097 4.91616 20.5462 4.76122C20.4827 4.60629 20.3883 4.466 20.2688 4.34895C20.1494 4.23191 20.0074 4.14059 19.8515 4.08058C19.6957 4.02057 19.5292 3.99314 19.3624 3.99997ZM9.67512 17.34H7.35297V10.21H9.67512V17.34ZM8.56886 9.12997C8.40681 9.13564 8.24535 9.10762 8.09462 9.04768C7.94388 8.98774 7.80712 8.89717 7.69295 8.78166C7.57876 8.66615 7.48961 8.5282 7.43111 8.37647C7.3726 8.22474 7.346 8.06251 7.35297 7.89997C7.3458 7.73567 7.37294 7.57169 7.43265 7.41854C7.49235 7.26538 7.58331 7.12644 7.69966 7.01063C7.81603 6.89481 7.95523 6.80468 8.10834 6.74602C8.26147 6.68735 8.42511 6.66145 8.58879 6.66997C8.75083 6.66431 8.9123 6.69232 9.06303 6.75226C9.21377 6.8122 9.35053 6.90277 9.4647 7.01828C9.57889 7.13379 9.66803 7.27174 9.72654 7.42347C9.78505 7.5752 9.81165 7.73743 9.80468 7.89997C9.81185 8.06427 9.78471 8.22825 9.725 8.3814C9.66529 8.53456 9.57434 8.6735 9.45798 8.78931C9.34162 8.90513 9.20242 8.99526 9.0493 9.05392C8.89618 9.11259 8.73253 9.13849 8.56886 9.12997ZM17.987 17.34H15.6549V13.44C15.6549 12.51 15.326 11.87 14.4988 11.87C14.2419 11.8722 13.9918 11.9541 13.7831 12.1045C13.5743 12.2549 13.4171 12.4664 13.3328 12.71C13.268 12.8926 13.2409 13.0865 13.253 13.28V17.34H10.9608V10.21H13.253V11.21C13.4568 10.8343 13.7601 10.5225 14.1295 10.3089C14.4988 10.0954 14.9198 9.98848 15.346 9.99997C16.8509 9.99997 17.987 11 17.987 13.13V17.34Z" fill="#ffffff"/>
</g>
</svg>
