<svg width="105" height="80" viewBox="0 0 105 80" fill="none" xmlns="http://www.w3.org/2000/svg">
<g id="SkyBranding Logo 1" clip-path="url(#clip0_221_1687)">
<g id="Untitled">
<g id="Group">
<g id="Group_2">
<g id="Group_3">
<g id="Clip path group">
<mask id="mask0_221_1687" style="mask-type:luminance" maskUnits="userSpaceOnUse" x="0" y="0" width="105" height="80">
<g id="ClipPath">
<path id="Vector" d="M0 0H105V80H0V0Z" fill="white"/>
</g>
</mask>
<g mask="url(#mask0_221_1687)">
<g id="Group_4">
<path id="Vector_2" d="M66.3705 38.8803C66.3705 53.8344 54.437 65.9574 39.7165 65.9574C24.9959 65.9574 13.0625 53.8344 13.0625 38.8803C13.0625 23.926 24.9959 11.8032 39.7165 11.8032C54.437 11.8032 66.3705 23.926 66.3705 38.8803Z" fill="#CB6CE6"/>
</g>
</g>
</g>
</g>
<path id="Vector_3" d="M33.9627 36.9587L18.8315 56.0473L85.2565 56.2364L53.8127 33.4031V51.6697L33.9627 36.9587Z" fill="#D67676"/>
</g>
<path id="Vector_4" d="M31.3157 27.092L28.2798 31.4032L52.5 49.181V30.781L72.2001 45.0922L75.0376 40.8256L47.25 20.381V38.381L31.3157 27.092Z" fill="#16A9FF"/>
</g>
</g>
</g>
<defs>
<clipPath id="clip0_221_1687">
<rect width="105" height="80" fill="white"/>
</clipPath>
</defs>
</svg>
