<svg width="25" height="24" viewBox="0 0 25 24" fill="none" xmlns="http://www.w3.org/2000/svg">
<g id="twitter-svgrepo-com 1">
<path id="Vector" d="M20.371 8.00001C20.371 8.17001 20.371 8.35001 20.371 8.52001C20.3802 10.0302 20.0909 11.5272 19.5197 12.9242C18.9484 14.3212 18.1068 15.5904 17.0434 16.6583C15.98 17.7262 14.7161 18.5714 13.325 19.1451C11.9339 19.7187 10.4432 20.0093 8.9394 20C6.75082 20.0064 4.60697 19.3779 2.76556 18.19C3.09417 18.19 3.40286 18.19 3.76134 18.19C5.56715 18.19 7.3206 17.5808 8.74025 16.46C7.89875 16.4524 7.08126 16.1774 6.40504 15.6744C5.72883 15.1714 5.22863 14.4662 4.9762 13.66C5.22977 13.7006 5.48618 13.7207 5.74295 13.72C6.09859 13.7174 6.45276 13.6738 6.79848 13.59C5.8988 13.4056 5.0902 12.9147 4.50953 12.2003C3.92886 11.486 3.6118 10.5921 3.61198 9.67001C4.16871 9.97841 4.78906 10.153 5.4243 10.18C4.86379 9.80767 4.40456 9.30089 4.08812 8.7055C3.77169 8.11011 3.60804 7.44489 3.61198 6.77001C3.61322 6.06749 3.79869 5.37769 4.1497 4.77001C5.15716 6.01766 6.41434 7.03889 7.83982 7.76757C9.2653 8.49625 10.8273 8.91613 12.4246 9.00001C12.3614 8.69737 12.3281 8.38922 12.3251 8.08001C12.2991 7.25689 12.5268 6.44578 12.977 5.75746C13.4273 5.06913 14.078 4.53714 14.8406 4.23411C15.6031 3.93109 16.4402 3.87181 17.2376 4.06437C18.0349 4.25693 18.7535 4.69195 19.2955 5.31001C20.1967 5.12822 21.0595 4.78981 21.8447 4.31001C21.5448 5.24317 20.9141 6.0332 20.0722 6.53001C20.8725 6.44316 21.6549 6.23408 22.3924 5.91001C21.8463 6.71097 21.1737 7.41694 20.4008 8.00001H20.371Z" fill="#ffffff"/>
</g>
</svg>
