<svg width="1439" height="141" viewBox="0 0 1439 141" fill="none" xmlns="http://www.w3.org/2000/svg">
<path d="M1300.76 71.6142H1536.66L1558.76 39.1767H1799.47L1869.99 107.867H2053.87L2126.39 1.01562H2341.77L2380.68 54.4403H2577.67L2640.96 107.867H2740.76" stroke="black"/>
<path d="M1301 71.854L1224.52 25.3633H983.371L959.652 59.4254H764.518L743.541 88.4158H718.943" stroke="black"/>
<path d="M1272.74 134.119H1204.26L1117.53 72.5059C1074.08 72.5059 987.191 72.5059 987.191 72.5059" stroke="black"/>
<circle cx="6.17801" cy="6.17801" r="6.17801" transform="matrix(-1 0 0 1 1283.59 127.939)" fill="black"/>
<path d="M334.417 124.387H492.399L543.464 88.416C601.976 88.416 719 88.416 719 88.416" stroke="black"/>
<ellipse cx="8.79956" cy="8.55221" rx="8.79956" ry="8.55221" transform="matrix(-1 0 0 1 334.417 115.834)" fill="black"/>
<path d="M876.8 16.6309H760.461L743.981 44.1875C700.892 44.1875 593.59 44.1875 593.59 44.1875" stroke="black"/>
<circle cx="6.55176" cy="6.55176" r="6.55176" transform="matrix(1 0 0 -1 876.8 23.1836)" fill="black"/>
<path d="M593.59 44.7188H478.59L425.261 82.6976H171.494L133.59 44.7188H0.588867" stroke="black"/>
</svg>
